<svg xmlns="http://www.w3.org/2000/svg" width="25" height="25" viewBox="0 0 25 25">
  <g id="Gruppe_6851" data-name="Gruppe 6851" transform="translate(-155 -918)">
    <g id="Gruppe_6679" data-name="Gruppe 6679" transform="translate(-16 316.973)">
      <rect id="Rechteck_146" data-name="Rechteck 146" width="25" height="25" transform="translate(171 601.027)"/>
      <g id="Icon_feather-calendar" data-name="Icon feather-calendar" transform="translate(176 604.894)">
        <path id="Pfad_51206" data-name="Pfad 51206" d="M6.165,6H17.823a1.6,1.6,0,0,1,1.665,1.524V18.2a1.6,1.6,0,0,1-1.665,1.524H6.165A1.6,1.6,0,0,1,4.5,18.2V7.524A1.6,1.6,0,0,1,6.165,6Z" transform="translate(-4.5 -4.476)" fill="none" stroke="#fff" stroke-linecap="round" stroke-linejoin="round" stroke-width="1.5"/>
        <path id="Pfad_51207" data-name="Pfad 51207" d="M24,3V6.049" transform="translate(-13.175 -3)" fill="none" stroke="#fff" stroke-linecap="round" stroke-linejoin="round" stroke-width="1.5"/>
        <path id="Pfad_51208" data-name="Pfad 51208" d="M12,3V6.049" transform="translate(-7.837 -3)" fill="none" stroke="#fff" stroke-linecap="round" stroke-linejoin="round" stroke-width="1.5"/>
        <path id="Pfad_51209" data-name="Pfad 51209" d="M4.5,15H19.488" transform="translate(-4.5 -8.902)" fill="none" stroke="#fff" stroke-linecap="round" stroke-linejoin="round" stroke-width="1.5"/>
      </g>
    </g>
  </g>
</svg>
