<svg xmlns="http://www.w3.org/2000/svg" width="20.421" height="20.416" viewBox="0 0 20.421 20.416">
  <path id="Icon_awesome-instagram" data-name="Icon awesome-instagram" d="M10.207,7.211a5.234,5.234,0,1,0,5.234,5.234A5.226,5.226,0,0,0,10.207,7.211Zm0,8.637a3.4,3.4,0,1,1,3.4-3.4A3.409,3.409,0,0,1,10.207,15.849ZM16.877,7a1.221,1.221,0,1,1-1.221-1.221A1.218,1.218,0,0,1,16.877,7Zm3.467,1.239a6.042,6.042,0,0,0-1.649-4.278,6.082,6.082,0,0,0-4.278-1.649c-1.686-.1-6.738-.1-8.423,0A6.073,6.073,0,0,0,1.716,3.954,6.062,6.062,0,0,0,.066,8.232c-.1,1.686-.1,6.738,0,8.423a6.042,6.042,0,0,0,1.649,4.278,6.089,6.089,0,0,0,4.278,1.649c1.686.1,6.738.1,8.423,0a6.042,6.042,0,0,0,4.278-1.649,6.082,6.082,0,0,0,1.649-4.278c.1-1.686.1-6.733,0-8.419ZM18.166,18.464A3.445,3.445,0,0,1,16.225,20.4c-1.344.533-4.533.41-6.018.41s-4.679.118-6.018-.41a3.445,3.445,0,0,1-1.941-1.941c-.533-1.344-.41-4.533-.41-6.018s-.118-4.679.41-6.018A3.445,3.445,0,0,1,4.189,4.487c1.344-.533,4.533-.41,6.018-.41s4.679-.118,6.018.41a3.445,3.445,0,0,1,1.941,1.941c.533,1.344.41,4.533.41,6.018S18.7,17.124,18.166,18.464Z" transform="translate(0.005 -2.238)"/>
</svg>
