<svg xmlns="http://www.w3.org/2000/svg" width="25" height="25" viewBox="0 0 25 25">
  <g id="Gruppe_6852" data-name="Gruppe 6852" transform="translate(-445 -918)">
    <rect id="Rechteck_147" data-name="Rechteck 147" width="25" height="25" transform="translate(445 918)"/>
    <path id="Differenzmenge_8" data-name="Differenzmenge 8" d="M6.564,17.591a.545.545,0,0,1-.353-.129C4.185,15.74,0,10.81,0,6.555a6.565,6.565,0,0,1,13.13,0c0,4.253-4.185,9.184-6.211,10.906A.548.548,0,0,1,6.564,17.591Zm0-12.871A2.038,2.038,0,1,0,8.605,6.757,2.042,2.042,0,0,0,6.564,4.719Z" transform="translate(451 921.205)" fill="#fff"/>
  </g>
</svg>
