<svg xmlns="http://www.w3.org/2000/svg" width="27" height="27" viewBox="0 0 27 27">
  <g id="Gruppe_6797" data-name="Gruppe 6797" transform="translate(-155 -1021)">
    <g id="Gruppe_6796" data-name="Gruppe 6796" transform="translate(-15 420.973)">
      <rect id="Rechteck_146" data-name="Rechteck 146" width="27" height="27" transform="translate(170 600.027)"/>
    </g>
    <path id="Icon_fa-solid-hashtag" data-name="Icon fa-solid-hashtag" d="M5.464,2.261A.965.965,0,0,1,6.257,3.37l-.3,1.772H8.827l.347-2.089a.964.964,0,1,1,1.9.316l-.292,1.772h1.754a.964.964,0,1,1,0,1.929H10.461l-.642,3.858h1.754a.964.964,0,0,1,0,1.929H9.5L9.15,14.945a.964.964,0,1,1-1.9-.316l.3-1.769H4.674l-.347,2.089a.964.964,0,1,1-1.9-.316l.292-1.775H.964a.964.964,0,1,1,0-1.929H3.041l.642-3.858H1.929a.964.964,0,1,1,0-1.929H4.005l.347-2.089a.965.965,0,0,1,1.109-.793Zm.175,4.81L5,10.928H7.863L8.5,7.071Z" transform="translate(161.356 1024.774)" fill="#fff"/>
  </g>
</svg>
