<svg xmlns="http://www.w3.org/2000/svg" width="18.27" height="12.18" viewBox="0 0 18.27 12.18">
  <path id="Icon_fa-solid-ticket-simple" data-name="Icon fa-solid-ticket-simple" d="M0,6.53A2.032,2.032,0,0,1,2.03,4.5H16.24a2.032,2.032,0,0,1,2.03,2.03V8.56a.677.677,0,0,1-.5.59,1.524,1.524,0,0,0,0,2.88.677.677,0,0,1,.5.59v2.03a2.032,2.032,0,0,1-2.03,2.03H2.03A2.032,2.032,0,0,1,0,14.65V12.62a.677.677,0,0,1,.5-.59,1.524,1.524,0,0,0,1.024-1.44A1.524,1.524,0,0,0,.5,9.15.677.677,0,0,1,0,8.56Z" transform="translate(0 -4.5)"/>
</svg>
